<?xml version="1.0" encoding="utf-8"?>
<!-- Generator: Adobe Illustrator 26.0.1, SVG Export Plug-In . SVG Version: 6.00 Build 0)  -->
<svg version="1.1" id="Layer_1" xmlns="http://www.w3.org/2000/svg" xmlns:xlink="http://www.w3.org/1999/xlink" x="0px" y="0px"
	 viewBox="0 0 1600 950" style="enable-background:new 0 0 1600 950;" xml:space="preserve">
<style type="text/css">
	.st0{opacity:0.4;}
	.st1{fill:none;stroke:#E2E8F0;}
	.st2{fill:none;stroke:url(#SVGID_1_);}
	.st3{fill:none;stroke:url(#SVGID_00000070076328755993480300000014347885563604354451_);}
	.st4{fill:none;stroke:url(#SVGID_00000078035770990306396240000004047408709545882507_);}
	.st5{fill:none;stroke:url(#SVGID_00000025401051195740434060000015207544871368336056_);}
</style>
<g class="st0">
	<path class="st1" d="M84,950V-650"/>
	
		<linearGradient id="SVGID_1_" gradientUnits="userSpaceOnUse" x1="186.357" y1="646.8898" x2="186.357" y2="37.8898" gradientTransform="matrix(1 0 0 -1 0 947.8898)">
		<stop  offset="0" style="stop-color:#F1F4F8"/>
		<stop  offset="0.2188" style="stop-color:#5BACFB"/>
		<stop  offset="0.7574" style="stop-color:#22FBB3"/>
		<stop  offset="1" style="stop-color:#F1F4F8"/>
	</linearGradient>
	<path class="st2" d="M186.4,950V-650"/>
	<path class="st1" d="M288.7,950V-650"/>
	<path class="st1" d="M391.1,950V-650"/>
	<path class="st1" d="M493.4,950V-650"/>
	<path class="st1" d="M595.8,950V-650"/>
	<path class="st1" d="M698.1,950V-650"/>
	<path class="st1" d="M800.5,950V-650"/>
	<path class="st1" d="M902.9,950V-650"/>
	<path class="st1" d="M1005.2,950V-650"/>
	<path class="st1" d="M1107.6,950V-650"/>
	
		<linearGradient id="SVGID_00000083804387368455801610000006537013264941160893_" gradientUnits="userSpaceOnUse" x1="1209.9301" y1="943.3899" x2="1209.9301" y2="1142.3899" gradientTransform="matrix(1 0 0 -1 0 947.8898)">
		<stop  offset="0" style="stop-color:#F8F9FC"/>
		<stop  offset="0.4872" style="stop-color:#01E470"/>
		<stop  offset="1" style="stop-color:#F8F9FC"/>
	</linearGradient>
	<path style="fill:none;stroke:url(#SVGID_00000083804387368455801610000006537013264941160893_);" d="M1209.9,950V-650"/>
	<path class="st1" d="M1312.3,950V-650"/>
	
		<linearGradient id="SVGID_00000075153082210193239750000017116283069610570411_" gradientUnits="userSpaceOnUse" x1="1414.64" y1="646.8898" x2="1414.64" y2="37.8898" gradientTransform="matrix(1 0 0 -1 0 947.8898)">
		<stop  offset="0" style="stop-color:#F1F4F8"/>
		<stop  offset="0.2188" style="stop-color:#5BACFB"/>
		<stop  offset="0.7574" style="stop-color:#22FBB3"/>
		<stop  offset="1" style="stop-color:#F1F4F8"/>
	</linearGradient>
	<path style="fill:none;stroke:url(#SVGID_00000075153082210193239750000017116283069610570411_);" d="M1414.6,950V-650"/>
	<path class="st1" d="M1517,950V-650"/>
</g>
<g class="st0">
	<path class="st1" d="M0,66h1600"/>
	
		<linearGradient id="SVGID_00000024724738818018040270000013433732894867560074_" gradientUnits="userSpaceOnUse" x1="255" y1="812.364" x2="846.5" y2="812.392" gradientTransform="matrix(1 0 0 -1 0 947.8898)">
		<stop  offset="0" style="stop-color:#F8F9FC"/>
		<stop  offset="0.4872" style="stop-color:#69D1FC"/>
		<stop  offset="1" style="stop-color:#F8F9FC"/>
	</linearGradient>
	<path style="fill:none;stroke:url(#SVGID_00000024724738818018040270000013433732894867560074_);" d="M0,135.5h1600"/>
	<path class="st1" d="M0,205h1600"/>
	<path class="st1" d="M0,274.5h1600"/>
	<path class="st1" d="M0,344h1600"/>
	<path class="st1" d="M0,413.5h1600"/>
	<path class="st1" d="M0,483h1600"/>
	<path class="st1" d="M0,552.5h1600"/>
	<path class="st1" d="M0,622h1600"/>
	<path class="st1" d="M0,691.5h1600"/>
	<path class="st1" d="M0,761h1600"/>
	<path class="st1" d="M0,830.5h1600"/>
	<path class="st1" d="M0,900h1600"/>
</g>
</svg>
